<?xml version="1.0" standalone="no"?>
<!DOCTYPE svg PUBLIC "-//W3C//DTD SVG 20010904//EN"
 "http://www.w3.org/TR/2001/REC-SVG-20010904/DTD/svg10.dtd">
<svg version="1.0" xmlns="http://www.w3.org/2000/svg"
 width="981.000000pt" height="980.000000pt" viewBox="0 0 981.000000 980.000000"
 preserveAspectRatio="xMidYMid meet">
<metadata>
Created by potrace 1.16, written by Peter Selinger 2001-2019
</metadata>
<g transform="translate(0.000000,980.000000) scale(0.100000,-0.100000)"
fill="#000000" stroke="none">
<path d="M4765 9790 c-113 -17 -218 -75 -605 -334 -508 -341 -604 -431 -703
-661 -68 -158 -71 -182 -71 -710 -1 -515 1 -537 57 -579 25 -18 48 -22 180
-28 84 -3 728 -7 1432 -7 l1281 -1 53 54 53 54 -5 509 c-5 576 -3 557 -88 733
-59 122 -121 212 -182 266 -113 99 -649 469 -868 599 -118 70 -172 89 -299
105 -94 11 -160 11 -235 0z"/>
<path d="M773 8105 c-72 -20 -148 -69 -188 -122 -89 -116 -99 -255 -31 -423
95 -233 526 -1135 612 -1279 78 -132 84 -135 914 -463 278 -110 506 -200 507
-202 2 -1 -9 -49 -22 -105 -50 -206 -105 -578 -105 -710 0 -43 -5 -72 -12 -78
-7 -6 -67 -13 -133 -17 -224 -12 -680 -46 -825 -61 -228 -24 -240 -28 -323
-97 -197 -163 -881 -842 -1063 -1054 -75 -87 -89 -124 -89 -234 1 -71 5 -95
27 -142 74 -159 245 -250 416 -219 38 7 82 20 98 30 54 33 300 262 785 732
l234 226 170 12 c500 35 585 41 641 41 l61 0 6 -107 c4 -58 7 -325 7 -593 l0
-486 -177 -84 c-362 -170 -740 -360 -813 -409 -91 -60 -117 -97 -258 -368
-141 -272 -581 -1168 -635 -1293 -64 -150 -70 -174 -65 -251 12 -164 140 -303
312 -339 78 -16 131 -7 226 41 89 45 121 78 195 203 53 90 317 616 545 1088
l153 316 366 175 366 174 81 -137 c111 -188 189 -300 298 -427 312 -364 731
-631 1204 -767 112 -33 318 -63 332 -50 3 3 6 1385 8 3071 l3 3066 -48 50 -48
49 -570 -5 c-688 -7 -641 1 -765 -126 -92 -94 -191 -226 -249 -333 -20 -37
-41 -68 -46 -68 -10 0 -1105 436 -1110 442 -1 2 -82 172 -180 378 -97 206
-232 485 -299 619 -110 222 -125 247 -166 277 -24 18 -67 40 -95 49 -71 23
-188 28 -252 10z"/>
<path d="M8880 8100 c-116 -43 -138 -68 -248 -287 -55 -110 -189 -385 -297
-613 -108 -228 -202 -420 -208 -427 -18 -18 -1143 -463 -1171 -463 -2 0 -28
42 -59 93 -112 187 -228 329 -340 419 l-49 38 -597 0 -597 0 -47 -48 -47 -48
0 -2719 c0 -1496 3 -2879 7 -3072 l6 -353 71 6 c201 16 428 90 707 229 253
127 407 235 593 415 186 180 327 366 476 628 l63 109 116 -55 c64 -30 226
-107 361 -171 l245 -116 360 -721 c198 -396 374 -741 392 -765 71 -101 148
-150 264 -168 146 -24 275 32 360 155 41 61 59 115 70 217 l9 88 -389 777
c-215 427 -413 814 -440 859 -28 45 -71 99 -96 121 -62 55 -227 141 -662 349
l-375 178 4 587 c2 322 6 590 11 594 8 8 328 -8 663 -34 l211 -17 364 -351
c423 -408 585 -559 640 -596 47 -32 160 -53 227 -43 131 20 237 96 294 213 30
60 33 75 33 157 0 119 -15 148 -158 305 -236 260 -896 906 -1022 1001 -58 44
-76 48 -375 79 -256 26 -532 48 -719 56 -90 4 -155 12 -160 18 -4 6 -11 65
-15 131 -6 130 -32 318 -71 515 -23 120 -33 215 -24 224 2 2 261 106 574 231
663 264 796 324 849 387 76 88 630 1242 688 1431 53 174 -27 362 -189 442 -78
39 -218 45 -303 15z"/>
</g>
</svg>
