<svg version="1.0" xmlns="http://www.w3.org/2000/svg" width="1308" height="1306.667" viewBox="0 0 981 980"><path d="M476.5 1c-11.3 1.7-21.8 7.5-60.5 33.4-50.8 34.1-60.4 43.1-70.3 66.1-6.8 15.8-7.1 18.2-7.1 71-.1 51.5.1 53.7 5.7 57.9 2.5 1.8 4.8 2.2 18 2.8 8.4.3 72.8.7 143.2.7l128.1.1 5.3-5.4 5.3-5.4-.5-50.9c-.5-57.6-.3-55.7-8.8-73.3-5.9-12.2-12.1-21.2-18.2-26.6-11.3-9.9-64.9-46.9-86.8-59.9-11.8-7-17.2-8.9-29.9-10.5-9.4-1.1-16-1.1-23.5 0zM77.3 169.5c-7.2 2-14.8 6.9-18.8 12.2-8.9 11.6-9.9 25.5-3.1 42.3 9.5 23.3 52.6 113.5 61.2 127.9 7.8 13.2 8.4 13.5 91.4 46.3 27.8 11 50.6 20 50.7 20.2.2.1-.9 4.9-2.2 10.5-5 20.6-10.5 57.8-10.5 71 0 4.3-.5 7.2-1.2 7.8-.7.6-6.7 1.3-13.3 1.7-22.4 1.2-68 4.6-82.5 6.1-22.8 2.4-24 2.8-32.3 9.7C97 541.5 28.6 609.4 10.4 630.6 2.9 639.3 1.5 643 1.5 654c.1 7.1.5 9.5 2.7 14.2 7.4 15.9 24.5 25 41.6 21.9 3.8-.7 8.2-2 9.8-3 5.4-3.3 30-26.2 78.5-73.2l23.4-22.6 17-1.2c50-3.5 58.5-4.1 64.1-4.1h6.1l.6 10.7c.4 5.8.7 32.5.7 59.3v48.6l-17.7 8.4c-36.2 17-74 36-81.3 40.9-9.1 6-11.7 9.7-25.8 36.8-14.1 27.2-58.1 116.8-63.5 129.3-6.4 15-7 17.4-6.5 25.1 1.2 16.4 14 30.3 31.2 33.9 7.8 1.6 13.1.7 22.6-4.1 8.9-4.5 12.1-7.8 19.5-20.3 5.3-9 31.7-61.6 54.5-108.8l15.3-31.6 36.6-17.5 36.6-17.4 8.1 13.7c11.1 18.8 18.9 30 29.8 42.7 31.2 36.4 73.1 63.1 120.4 76.7 11.2 3.3 31.8 6.3 33.2 5 .3-.3.6-138.5.8-307.1l.3-306.6-4.8-5-4.8-4.9-57 .5c-68.8.7-64.1-.1-76.5 12.6-9.2 9.4-19.1 22.6-24.9 33.3-2 3.7-4.1 6.8-4.6 6.8-1 0-110.5-43.6-111-44.2-.1-.2-8.2-17.2-18-37.8-9.7-20.6-23.2-48.5-29.9-61.9-11-22.2-12.5-24.7-16.6-27.7-2.4-1.8-6.7-4-9.5-4.9-7.1-2.3-18.8-2.8-25.2-1zM888 170c-11.6 4.3-13.8 6.8-24.8 28.7-5.5 11-18.9 38.5-29.7 61.3-10.8 22.8-20.2 42-20.8 42.7-1.8 1.8-114.3 46.3-117.1 46.3-.2 0-2.8-4.2-5.9-9.3-11.2-18.7-22.8-32.9-34-41.9l-4.9-3.8H531.4l-4.7 4.8-4.7 4.8v271.9c0 149.6.3 287.9.7 307.2l.6 35.3 7.1-.6c20.1-1.6 42.8-9 70.7-22.9 25.3-12.7 40.7-23.5 59.3-41.5 18.6-18 32.7-36.6 47.6-62.8l6.3-10.9 11.6 5.5c6.4 3 22.6 10.7 36.1 17.1l24.5 11.6 36 72.1c19.8 39.6 37.4 74.1 39.2 76.5 7.1 10.1 14.8 15 26.4 16.8 14.6 2.4 27.5-3.2 36-15.5 4.1-6.1 5.9-11.5 7-21.7l.9-8.8-38.9-77.7c-21.5-42.7-41.3-81.4-44-85.9-2.8-4.5-7.1-9.9-9.6-12.1-6.2-5.5-22.7-14.1-66.2-34.9l-37.5-17.8.4-58.7c.2-32.2.6-59 1.1-59.4.8-.8 32.8.8 66.3 3.4l21.1 1.7 36.4 35.1c42.3 40.8 58.5 55.9 64 59.6 4.7 3.2 16 5.3 22.7 4.3 13.1-2 23.7-9.6 29.4-21.3 3-6 3.3-7.5 3.3-15.7 0-11.9-1.5-14.8-15.8-30.5-23.6-26-89.6-90.6-102.2-100.1-5.8-4.4-7.6-4.8-37.5-7.9-25.6-2.6-53.2-4.8-71.9-5.6-9-.4-15.5-1.2-16-1.8-.4-.6-1.1-6.5-1.5-13.1-.6-13-3.2-31.8-7.1-51.5-2.3-12-3.3-21.5-2.4-22.4.2-.2 26.1-10.6 57.4-23.1 66.3-26.4 79.6-32.4 84.9-38.7 7.6-8.8 63-124.2 68.8-143.1 5.3-17.4-2.7-36.2-18.9-44.2-7.8-3.9-21.8-4.5-30.3-1.5z"/></svg>